<svg width="83" height="39" viewBox="0 0 83 39" fill="none" xmlns="http://www.w3.org/2000/svg">
<path d="M30.04 8.72L23.68 31.56H19.4L15.04 17.68L10.68 31.56H6.4L0 8.72H5.52L8.88 23.6L12.36 11.36C12.76 9.6 13.6667 8.72 15.08 8.72C15.7467 8.72 16.28 8.93333 16.68 9.36C17.08 9.78667 17.4133 10.4533 17.68 11.36L21.2 23.6L24.56 8.72H30.04Z" fill="white"/>
<path d="M50.3916 31.72H46.9116L45.3116 28.96L39.7516 31.96C36.6582 31.96 34.5782 30.84 33.5116 28.6C32.9782 27.5067 32.6049 26.3333 32.3916 25.08C32.2049 23.8 32.1116 22.48 32.1116 21.12C32.1116 19.7333 32.1249 18.72 32.1516 18.08C32.1782 17.4133 32.2449 16.6533 32.3516 15.8C32.4582 14.92 32.6049 14.1867 32.7916 13.6C33.0049 13.0133 33.2982 12.4133 33.6716 11.8C34.0449 11.16 34.4982 10.6533 35.0316 10.28C36.2316 9.45333 37.7916 9.04 39.7116 9.04H45.1916L50.3916 8.72V31.72ZM41.2316 26.48C44.1163 26.48 46.4839 24.1977 46.5899 21.315L46.9116 12.56L44.3401 14.56H41.2316C39.7649 14.56 38.5959 14.4509 37.4001 15.8C36.4001 16.9282 35.8401 17.82 35.8401 20.06C35.8401 22.2733 35.8401 24.06 36.8401 25.08C37.8401 26.1 39.7116 26.48 41.2316 26.48V26.48Z" fill="white"/>
<path d="M72.7188 19.52C72.7188 25.4667 71.1854 29.2667 68.1187 30.92C66.8654 31.5867 65.3321 31.92 63.5187 31.92L59.6787 30.56V38.36H54.4788V8.88H64.7188C67.8121 8.88 69.9187 9.76 71.0387 11.52C72.1588 13.2533 72.7188 15.92 72.7188 19.52ZM69.3401 19.52C69.3401 15.0133 67.5988 14.06 64.7188 14.06H62.8401C60.0787 14.06 57.8401 16.2986 57.8401 19.06V24.56V28.56L60.8401 25.56C62.3868 25.56 66.0614 26.56 67.8401 24.56C69.3136 22.9031 69.3401 21.6533 69.3401 19.52Z" fill="white"/>
<path d="M79.5016 0C80.7549 0 81.5682 0.2 81.9416 0.599999C82.3149 0.973333 82.5016 1.78667 82.5016 3.04C82.5016 4.26667 82.3016 5.08 81.9016 5.48C81.5282 5.85333 80.7149 6.04 79.4616 6.04C78.2349 6.04 77.4216 5.84 77.0216 5.44C76.6482 5.04 76.4616 4.22667 76.4616 3C76.4616 1.77333 76.6482 0.973333 77.0216 0.599999C77.4216 0.2 78.2482 0 79.5016 0ZM82.0616 31.56H76.8616V9.56H82.0616V31.56Z" fill="white"/>
</svg>
